<?xml version="1.0" encoding="utf-8"?>
<svg version="1.1" id="图层_1" xmlns="http://www.w3.org/2000/svg" xmlns:xlink="http://www.w3.org/1999/xlink"
     viewBox="300 400 250 250" xml:space="preserve">
<style type="text/css">
    .st0{fill:#FFE601;}
    .st1{fill-rule:evenodd;clip-rule:evenodd;fill:#FFE601;}
    .st2{fill:#FFFFFF;}
    .st3{fill-rule:evenodd;clip-rule:evenodd;fill:#FFFFFF;}
</style>
    <g>
    <path class="st1" d="M516.19,572.06c-3.9,1.92-8.18,3-12.51,3h-57.2c-11.06,0-21.95-6.94-26.16-17.25
        c-2.02-4.87-1.04-9.93,3.34-9.93h91.33v-15.42c-14.77-3.47-27.35-13.47-31.64-27.45c-2.77,0.04-5.61,0.12-8.28,0.12
        c-41.04,0-96.35-5.51-96.35-5.51c4.96-14.98,12.84-28.45,21.68-42.77c4.12-6.66,10.25-10.27,16.91-10.72
        c17.64-1.21,38.48-1.89,57.77-1.93c2.21,0.01,4.48,0.06,6.73,0.08v-10.21c0-1.11,0.08-2.21,0.16-3.31
        c-2.29-0.01-4.59-0.01-6.89-0.01c-22.38,0-45.24-0.09-67.13,2.93c-10.13,1.41-16.68,7.38-21.37,14.28
        c-10.67,15.73-17.55,32.3-23.56,49.1h-26.84c-7.47,0-11.92,5.8-9.99,13.03c2.14,7.98,4.57,11.88,16.26,14.6l4.48,1.04
        c-3.5,6.67-6.05,13.7-6.05,20.01v51.6c0,8.63,5.98,15.93,12.94,18.64v24.15c0,4.72,3.8,8.53,8.51,8.53h24.12
        c4.72,0,8.53-3.81,8.53-8.53v-22.94h120.05v-13.09c0-6.53,3.66-13.09,8.22-17.76v-2.57C521.73,582.45,518.08,577.47,516.19,572.06z
         M399.24,574.83c-9.34-1.4-26.86-3.6-35.2-6.65c-10.15-3.71-8.02-15-6.15-20.73c1.04-3.2,3.78-5.28,10.3-5.2
        c2.18,0.01,4.78,0.28,7.86,0.82c12.33,2.11,25.48,5.21,31.31,19.9C410.47,570.88,408.22,576.19,399.24,574.83z"/>
</g>
</svg>
