<?xml version="1.0" encoding="utf-8"?>
<!-- Generator: Adobe Illustrator 26.0.1, SVG Export Plug-In . SVG Version: 6.00 Build 0)  -->
<svg version="1.1" id="图层_1" xmlns="http://www.w3.org/2000/svg" xmlns:xlink="http://www.w3.org/1999/xlink" x="0px" y="0px"
	 viewBox="0 0 1920 1080" style="enable-background:new 0 0 1920 1080;" xml:space="preserve">
<style type="text/css">
	.st0{fill:#FFE601;}
	.st1{fill-rule:evenodd;clip-rule:evenodd;fill:#FFE601;}
	.st2{fill:#FFFFFF;}
	.st3{fill-rule:evenodd;clip-rule:evenodd;fill:#FFFFFF;}
</style>
<g>
	<g>
		<path class="st0" d="M573.73,582.08c9.55,7.93,20.41,11.89,32.57,11.89c6.9,0,12.08-1.19,15.56-3.57
			c3.48-2.37,5.21-5.43,5.21-9.16c0-3.22-1.38-6.26-4.14-9.12c-2.76-2.86-10.04-6.75-21.85-11.65
			c-18.55-7.87-27.82-19.32-27.82-34.34c0-11.04,4.2-19.61,12.61-25.72s19.53-9.16,33.38-9.16c11.6,0,21.33,1.51,29.2,4.52v23.76
			c-7.97-5.42-17.3-8.13-27.98-8.13c-6.24,0-11.22,1.14-14.95,3.41s-5.6,5.33-5.6,9.16c0,3.06,1.28,5.89,3.83,8.47
			c2.55,2.58,8.87,6.07,18.93,10.46c11.8,5.06,19.91,10.4,24.33,16.03c4.42,5.62,6.63,12.31,6.63,20.08
			c0,11.4-4.04,20.08-12.11,26.06c-8.08,5.98-19.55,8.97-34.42,8.97c-13.59,0-24.73-2.19-33.42-6.59V582.08z"/>
		<path class="st0" d="M698.9,570.58v41.39h-25.29V493.24h40.85c29.54,0,44.3,12.52,44.3,37.56c0,12.16-4.46,21.91-13.37,29.24
			c-8.92,7.34-20.07,10.85-33.46,10.54H698.9z M698.9,512.86v38.33h10.96c14.87,0,22.3-6.47,22.3-19.4
			c0-12.62-7.36-18.93-22.08-18.93H698.9z"/>
		<path class="st0" d="M769.34,554.18c0-18.6,5.43-33.74,16.29-45.42c10.86-11.68,25.2-17.51,43.04-17.51
			c16.97,0,30.62,5.65,40.97,16.94c10.35,11.3,15.52,25.81,15.52,43.54c0,18.5-5.38,33.51-16.14,45.03
			c-10.76,11.52-24.85,17.28-42.27,17.28c-17.02,0-30.84-5.58-41.47-16.74C774.65,586.13,769.34,571.75,769.34,554.18z
			 M795.94,552.8c0,11.55,2.78,20.99,8.35,28.32c5.57,7.34,13.21,11,22.92,11c9.91,0,17.63-3.51,23.15-10.54
			c5.52-7.03,8.28-16.47,8.28-28.33c0-12.36-2.68-22.14-8.05-29.32c-5.37-7.18-12.93-10.77-22.69-10.77
			c-9.91,0-17.72,3.68-23.42,11.04S795.94,541.09,795.94,552.8z"/>
		<path class="st0" d="M980.37,513.93h-33.88v98.04h-25.37v-98.04h-33.8v-20.7h93.06V513.93z"/>
		<path class="st0" d="M1064.29,513.93h-42.39v30.51h39.02v20.7h-39.02v46.83h-25.29V493.24h67.68V513.93z"/>
		<path class="st0" d="M1109.44,493.24v118.74h-25.3V493.24H1109.44z"/>
		<path class="st0" d="M1242.43,611.97h-25.91l-50.28-76.81c-2.6-3.99-4.5-7.2-5.67-9.66h-0.38c0.46,4.09,0.69,10.4,0.69,18.93
			v67.53h-23.99V493.24h27.59l48.45,74.66c3.21,4.95,5.18,8.1,5.9,9.43h0.38c-0.51-2.86-0.77-8.33-0.77-16.41v-67.69h23.99V611.97z"
			/>
		<path class="st0" d="M1270.03,611.97V493.24h41.01c42.15,0,63.23,19.29,63.23,57.87c0,18.34-5.9,33.08-17.7,44.19
			c-11.8,11.11-27.04,16.67-45.68,16.67H1270.03z M1295.32,513.93v77.34h13.8c12,0,21.43-3.58,28.28-10.74
			c6.84-7.15,10.27-16.83,10.27-29.05c0-11.8-3.58-21.01-10.74-27.63c-7.15-6.62-16.45-9.92-27.9-9.92H1295.32z"/>
		<path class="st0" d="M1464.57,611.97h-70.29V493.24h67.53v20.7h-42.24v27.98h39.25v20.62h-39.25v28.75h45V611.97z"/>
		<path class="st0" d="M1582,611.97h-29.13l-18.62-30.89c-3.83-6.39-6.97-10.5-9.43-12.34c-2.45-1.84-5.06-2.76-7.82-2.76h-7.67
			v45.99h-25.29V493.24h41.62c28.25,0,42.39,10.73,42.39,32.19c0,8.07-2.37,15-7.09,20.77c-4.73,5.78-11.23,9.84-19.51,12.19v0.3
			c5.47,1.84,11.52,7.87,18.17,18.09L1582,611.97z M1509.33,512.48v34.19h12.42c5.92,0,10.69-1.73,14.29-5.17
			c3.61-3.45,5.4-7.76,5.4-12.92c0-10.73-6.41-16.1-19.24-16.1H1509.33z"/>
	</g>
	<path class="st1" d="M516.19,572.06c-3.9,1.92-8.18,3-12.51,3h-57.2c-11.06,0-21.95-6.94-26.16-17.25
		c-2.02-4.87-1.04-9.93,3.34-9.93h91.33v-15.42c-14.77-3.47-27.35-13.47-31.64-27.45c-2.77,0.04-5.61,0.12-8.28,0.12
		c-41.04,0-96.35-5.51-96.35-5.51c4.96-14.98,12.84-28.45,21.68-42.77c4.12-6.66,10.25-10.27,16.91-10.72
		c17.64-1.21,38.48-1.89,57.77-1.93c2.21,0.01,4.48,0.06,6.73,0.08v-10.21c0-1.11,0.08-2.21,0.16-3.31
		c-2.29-0.01-4.59-0.01-6.89-0.01c-22.38,0-45.24-0.09-67.13,2.93c-10.13,1.41-16.68,7.38-21.37,14.28
		c-10.67,15.73-17.55,32.3-23.56,49.1h-26.84c-7.47,0-11.92,5.8-9.99,13.03c2.14,7.98,4.57,11.88,16.26,14.6l4.48,1.04
		c-3.5,6.67-6.05,13.7-6.05,20.01v51.6c0,8.63,5.98,15.93,12.94,18.64v24.15c0,4.72,3.8,8.53,8.51,8.53h24.12
		c4.72,0,8.53-3.81,8.53-8.53v-22.94h120.05v-13.09c0-6.53,3.66-13.09,8.22-17.76v-2.57C521.73,582.45,518.08,577.47,516.19,572.06z
		 M399.24,574.83c-9.34-1.4-26.86-3.6-35.2-6.65c-10.15-3.71-8.02-15-6.15-20.73c1.04-3.2,3.78-5.28,10.3-5.2
		c2.18,0.01,4.78,0.28,7.86,0.82c12.33,2.11,25.48,5.21,31.31,19.9C410.47,570.88,408.22,576.19,399.24,574.83z"/>
</g>
</svg>
